<?xml version="1.0" encoding="utf-8"?>
<!-- Generator: Adobe Illustrator 22.0.1, SVG Export Plug-In . SVG Version: 6.00 Build 0)  -->
<svg version="1.1" id="Layer_1" xmlns="http://www.w3.org/2000/svg" xmlns:xlink="http://www.w3.org/1999/xlink" x="0px" y="0px"
	 viewBox="0 0 150 150" style="enable-background:new 0 0 150 150;" xml:space="preserve">
<style type="text/css">
	.st0{fill:none;stroke:#000000;stroke-width:1.0271;stroke-miterlimit:10;}
	.st1{stroke:#231F20;stroke-width:0.4369;stroke-miterlimit:10;}
	.st2{fill:none;}
	.st3{fill:none;stroke:#000000;stroke-width:2;stroke-miterlimit:10;}
	.st4{stroke:#000000;stroke-width:2;stroke-miterlimit:10;}
	.st5{fill:none;stroke:#000000;stroke-miterlimit:10;}
	.st6{stroke:#000000;stroke-miterlimit:10;}
	.st7{fill:none;stroke:#000000;stroke-width:1.4883;stroke-miterlimit:10;}
	.st8{fill:none;stroke:#000000;stroke-width:0.5117;stroke-miterlimit:10;}
	.st9{fill:none;stroke:#000000;stroke-width:0.2558;stroke-miterlimit:10;}
	.st10{stroke:#000000;stroke-width:0.5117;stroke-miterlimit:10;}
	.st11{stroke:#000000;stroke-width:0.7558;stroke-miterlimit:10;}
	.st12{fill:none;stroke:#000000;stroke-width:0.7558;stroke-miterlimit:10;}
</style>
<g>
	<rect x="2" y="2" class="st2" width="146" height="146"/>
	<circle class="st5" cx="20.6" cy="18.6" r="8.3"/>
	<circle class="st5" cx="92.5" cy="22.9" r="8.3"/>
	<circle class="st6" cx="29" cy="116.4" r="8.3"/>
	<circle class="st7" cx="62.6" cy="52" r="12.4"/>
	<circle class="st7" cx="123.8" cy="84.5" r="12.4"/>
	<circle class="st7" cx="71.1" cy="127.1" r="12.4"/>
	<circle class="st8" cx="31" cy="49.9" r="4.3"/>
	<circle class="st9" cx="14.1" cy="60.1" r="2.1"/>
	<circle class="st9" cx="31" cy="35.4" r="2.1"/>
	<circle class="st9" cx="42.5" cy="69.7" r="2.1"/>
	<circle class="st8" cx="68.5" cy="74" r="4.3"/>
	<circle class="st8" cx="125.2" cy="55.8" r="4.3"/>
	<circle class="st8" cx="68.3" cy="98" r="4.3"/>
	<circle class="st10" cx="99.1" cy="56.7" r="4.3"/>
	<circle class="st11" cx="50.2" cy="24.9" r="6.3"/>
	<circle class="st11" cx="125.2" cy="33.2" r="6.3"/>
	<circle class="st5" cx="88.5" cy="88.6" r="8.3"/>
	<circle class="st6" cx="113.1" cy="117.9" r="8.3"/>
	<circle class="st11" cx="50.2" cy="88.6" r="6.3"/>
	<circle class="st12" cx="24.7" cy="80.3" r="6.3"/>
</g>
</svg>
