<?xml version="1.0" encoding="utf-8"?>
<!-- Generator: Adobe Illustrator 22.0.1, SVG Export Plug-In . SVG Version: 6.00 Build 0)  -->
<svg version="1.1" id="Capa_1" xmlns="http://www.w3.org/2000/svg" xmlns:xlink="http://www.w3.org/1999/xlink" x="0px" y="0px"
	 viewBox="0 0 385 223" style="enable-background:new 0 0 385 223;" xml:space="preserve">
<style type="text/css">
	.st0{fill-rule:evenodd;clip-rule:evenodd;fill:#F4F4F4;}
	.st1{fill:#F4F4F4;}
</style>
<g>
	<path class="st0" d="M350.9,74c-4.6,0.1-9.5,2.1-11,5.5c-2.3,5.5,0.3,22.6-15.7,21.2c-8.4-0.7-10.2-11.1-8.3-22.4
		c0.1-0.5-0.9-1.8-1.5-1.9c-3.5-0.3-7.8,2.7-8.3,5.3c-1.4,6.3-5.1,20.8-18.3,18.1c-10-2.1-3.8-18.2-10.7-24.9
		c-11.8-2.1-20.2,2.8-28.5,5.3c5.3,22.6-30.4,30.7-35.6,11.6c10.6,0.6,23.8-0.4,24-11.6c0.3-12.6-18.3-15.8-29.3-8
		c-4.7,3.3-7.3,6.6-8.8,11.4l-9.4-0.4c-3.4-23.5-6.3-44.3-17.4-57.2C148.1-2.2,58.1,2.8,34.4,26c-15.5,15.2-18.2,42-16.9,71.1
		c1.9,42.5,11.9,89.5,24.9,119.2c5.1-0.8,8.9-4.7,8.9-4.7c-4.4-12.1-4-9-7.1-19.2c-10.2-33.9-19.2-77.7-16-121
		c3-41.1,27.5-51.2,68.5-54.2c21.8-1.6,51.5-0.1,64.9,12.4c11.9,11.1,16.7,31.6,16.9,53.1l-6.1-0.3c-1.5-4.7-2.3-13.9-3.7-17.3
		c-13.5-34.8-90-38.5-114.7-13.3c-25.4,26-10.9,86.7,9.8,106.7c24.4,23.6,93.5,3.7,112-14.9c11.3-11.3,13.2-29.5,15.1-51.4
		c1,0,2,0,3.1,0l6.7,0c2.6,22,34.3,23.2,48,9.5c3.6-3.6,6.1-9.6,7-13.5c0.9-3.9,14.1-7.1,14.1-3.5c1.5,25.6,28.2,31.9,36.8,8
		c0.3,20.9,33.3,19.2,39.1,4.4c2.7,8.2,20.3,20,22.2,3.6C356.2,97.8,347.9,91.6,350.9,74z M229.1,77.6c-0.2,7.2-8.7,6.1-16,6.2
		C213.1,75.8,224.8,71.1,229.1,77.6z M112.6,130.9c-4.5,0-11.6-0.3-16-1.8c-20.8-7-21.4-42.6-7.1-55.1c12.4-10.8,44.8-10.1,51.2,6.9
		l-13.6-0.6c-16.7-1.2-33.1,1.6-31.3,19.5c2.8,28.1,62.3,27.4,57-9.1l11.9,0.3C168,120.9,138.6,131.1,112.6,130.9z M110,100.7
		c-1.3-8.4,4.6-10.5,12.4-10.8l0,0l20.6,0.6C148.5,112,112,114.4,110,100.7z M178.4,109.6c-1.5,10.8-4.9,20.8-10.7,26.7
		c-11.6,11.7-67.7,32.4-92.5,16.9c-23.9-15-34.4-81.6-6.2-99.6c29.4-18.7,93-8.7,94.2,28.4l-11.8-0.6c-0.1-0.2-0.3-0.4-0.4-0.6
		c-2.6-5.1-6.6-11.5-10.9-14.8c-26.4-20.3-66.7-2.5-70.2,24c-4,30.2,10.9,51.3,40,51.6c29.9,0.3,57.8-11.6,62.2-37.3
		c0.3-2,0.3-8.3,0.9-13l6.8,0.2C180.9,97.2,179,105.8,178.4,109.6z"/>
	<path class="st1" d="M333.7,47.3l-10.7,9.8c0,0-2.4,4.7,5.3,4.7l14.5-10.1c0,0,3.7-0.7,0-4.4C342.9,47.3,337.9,43.1,333.7,47.3z"/>
</g>
</svg>
